<?xml version="1.0" encoding="UTF-8"?>
<svg id="Camada_1" data-name="Camada 1" xmlns="http://www.w3.org/2000/svg" viewBox="0 0 1000 1000">
  <defs>
    <style>
      .cls-1, .cls-2, .cls-3 {
        stroke-width: 0px;
      }

      .cls-2 {
        fill: #fff;
      }

      .cls-3 {
        fill: #c41a2f;
      }
    </style>
  </defs>
  <g>
    <path class="cls-3" d="m275.28,444.11c11.69-1.88,22.23-2.82,31.62-2.82,17.11,0,31.93,4.02,44.45,12.05,12.52,8.03,19.83,20.4,21.91,37.1.63,4.18.94,8.45.94,12.83,0,12.1-2.5,24-7.51,35.69-19.41-13.35-44.03-20.45-73.88-21.29h-10.96c-27.76,0-60.63,2.71-98.61,8.14,4.8,7.51,7.2,17.01,7.2,28.49s-2.4,24.94-7.2,40.38l-7.83,25.98h74.82c.83,0,1.46.52,1.88,1.57.2.63.31,1.46.31,2.5v1.57c-3.76,24.42-15.23,36.63-34.43,36.63h-3.76l-50.09-5.01-69.81,231.97c-22.33-7.3-38.4-17.32-48.21-30.05-4.8-6.26-7.2-15.03-7.2-26.3,0-11.9,2.71-26.71,8.14-44.45,3.33-10.02,8.92-27.81,16.75-53.37,7.83-25.56,16.43-54,25.83-85.3l-25.67-2.5c-2.5-.83-3.97-3.44-4.38-7.83v-1.25c0-3.76.83-7.62,2.5-11.58,1.67-3.96,4.49-6.15,8.45-6.57h27.86c9.6-32.76,17.32-61.36,23.17-85.77-11.48,2.5-21.91,3.76-31.3,3.76-18.37,0-33.18-4.49-44.45-13.46-9.39-7.3-14.09-17.01-14.09-29.11,0-10.43,3.44-22.54,10.33-36.31,4.59,15.86,18.16,23.79,40.7,23.79,3.76,0,14.13-.89,31.15-2.66,17.01-1.77,46.69-8.3,89.06-19.57,23.58-6.05,47.69-11.79,72.31-17.22Z"/>
    <path class="cls-3" d="m428.04,660.11c-42.37,11.69-77.27,34.23-104.71,67.62-27.44,33.39-42.1,68.24-43.98,104.56,0,5.01,1.14,7.93,3.44,8.77,2.3.83,3.96,1.25,5.01,1.25,2.08,0,4.17-1.04,6.26-3.13,30.05-37.36,64.69-87.76,103.93-151.2,19.2,8.56,32.24,17.64,39.13,27.23,6.89,9.6,10.33,18.68,10.33,27.23,0,6.89-1.67,14.51-5.01,22.85l-42.57,124.59-20.03-11.9c-1.25-.83-2.4-1.67-3.44-2.5-7.31-4.59-12.99-9.44-17.06-14.56-4.07-5.11-6.1-11.53-6.1-19.25,0-1.88.1-3.76.31-5.63,1.25-10.43,6.78-25.25,16.59-44.45l-38.19,66.99c-12.94,19.62-24.42,29.69-34.43,30.21-10.02.52-15.45.78-16.28.78-23.37,0-40.07-10.33-50.09-30.99-7.51-15.65-11.27-32.66-11.27-51.03,0-20.45,4.59-42.57,13.77-66.37,17.32-45.5,44.03-80.24,80.14-104.24,18.78-10.85,37.14-16.28,55.1-16.28,3.96,0,7.93.31,11.9.94,21.7,3.13,37.46,15.97,47.27,38.5Z"/>
    <path class="cls-3" d="m672.53,660.42c-43.2,12.52-78.89,35.8-107.06,69.81-28.17,34.02-42.26,64.91-42.26,92.66,0,3.13.2,6.37.63,9.7,2.08,9.39,9.91,14.09,23.48,14.09,4.59,0,9.91-.52,15.97-1.57,23.58-4.59,53.01-24.31,88.28-59.17h.31c.63,0,1.04,1.67,1.25,5.01v2.19c0,3.76-.42,8.45-1.25,14.09-.83,6.68-2.46,13.51-4.85,20.5-2.4,7-5.79,13.1-10.17,18.31-8.97,13.36-23.06,24-42.26,31.93-19.2,7.93-37.77,11.9-55.72,11.9-3.97,0-7.93-.2-11.9-.63-22.12-1.88-39.24-12-51.34-30.37-7.51-15.65-11.27-32.76-11.27-51.34,0-20.45,4.59-42.57,13.77-66.37,17.32-45.28,44.03-79.93,80.14-103.93,18.78-10.85,37.14-16.28,55.1-16.28,3.96,0,7.93.31,11.9.94,21.7,3.13,37.46,15.97,47.27,38.5Z"/>
    <path class="cls-3" d="m694.76,858.89c-7.51-15.65-11.27-32.76-11.27-51.34,0-20.45,4.59-42.57,13.77-66.37,17.32-45.28,44.03-79.93,80.14-103.93,17.53-10.43,34.43-15.65,50.71-15.65s33.18,5.43,48.83,16.28c10.85,7.72,16.28,19.41,16.28,35.06,0,5.01-.52,10.44-1.57,16.28-4.38,24-23.27,50.82-56.66,80.45-30.68,29.63-61.57,49.77-92.66,60.42l.63,2.5c.83,6.26,4.49,10.28,10.96,12.05,6.47,1.77,11.37,2.66,14.71,2.66,9.39,0,20.87-3.02,34.43-9.08,18.78-8.14,41.32-25.56,67.62-52.28h.31c.83,0,1.36,1.67,1.57,5.01v2.19c0,3.76-.42,8.45-1.25,14.09-1.05,6.68-2.77,13.51-5.17,20.5-2.4,7-5.79,13.1-10.17,18.31-8.97,13.36-23.06,24-42.26,31.93-19.2,7.93-37.77,11.9-55.72,11.9-3.97,0-7.93-.2-11.9-.63-22.12-1.88-39.24-12-51.34-30.37Zm153.08-180.94c-1.88-.42-3.87-.63-5.95-.63-9.19,0-19.41,4.8-30.68,14.4-13.77,11.9-26.61,26.97-38.5,45.23-11.9,18.27-20.66,35.53-26.3,51.81,16.9-8.56,34.43-20.97,52.59-37.25,18.16-16.28,31.41-30.37,39.76-42.26,8.34-11.9,12.52-20.24,12.52-25.04,0-2.92-1.15-5.01-3.44-6.26Z"/>
  </g>
  <g>
    <path class="cls-3" d="m637.57,318.48c-11.97,29.91-22.33,59.2-31.1,87.86-8.77,28.66-15.3,51.9-19.62,69.7-4.31,19.48-6.47,37.36-6.47,53.63,0,17.95,2.64,33.88,7.93,47.79h-29.63c-19.2-1.95-29.01-15.1-29.43-39.44v-4.59c0-8.21.9-18.09,2.71-29.63l-43.2-93.5c-5.84,31.3-12.97,59.41-21.39,84.31-8.42,24.9-20,52.52-34.75,82.85-.97-.28-2.02-.56-3.13-.83-7.1-1.39-14.23-3.58-21.39-6.57-7.17-2.99-12.07-7.69-14.71-14.09-.83-1.95-1.25-4.1-1.25-6.47,0-5.7,2.16-12.66,6.47-20.87,15.17-24.35,28.77-58.61,40.8-102.78,12.03-44.17,19.72-80.59,23.06-109.25.28-9.18,4-17.18,11.17-24s14.78-11.27,22.85-13.36c2.64-.7,4.94-1.04,6.89-1.04,4.31,0,7.44,1.53,9.39,4.59,2.23,34.37,6.43,62.3,12.63,83.79,6.19,21.5,13.11,41.08,20.77,58.75.97,2.37,1.95,4.8,2.92,7.3,17.53-57.32,33.67-105.67,48.42-145.04.97-2.92,1.95-5.7,2.92-8.35l35.48,24.83c2.09,1.81,3.13,4.24,3.13,7.3,0,2.09-.49,4.45-1.46,7.1Z"/>
    <path class="cls-3" d="m614.82,556.81c-5.01-10.43-7.51-21.84-7.51-34.23,0-13.63,3.06-28.38,9.18-44.24,11.55-30.19,29.36-53.29,53.43-69.29,11.69-6.96,22.96-10.43,33.81-10.43s22.12,3.62,32.56,10.85c7.23,5.15,10.85,12.94,10.85,23.37,0,3.34-.35,6.96-1.04,10.85-2.92,16-15.51,33.88-37.77,53.63-20.45,19.76-41.04,33.18-61.77,40.28l.42,1.67c.56,4.17,2.99,6.85,7.3,8.03s7.58,1.77,9.81,1.77c6.26,0,13.91-2.02,22.96-6.05,12.52-5.43,27.55-17.04,45.08-34.85h.21c.56,0,.9,1.11,1.04,3.34v1.46c0,2.5-.28,5.63-.83,9.39-.7,4.45-1.84,9.01-3.44,13.67-1.6,4.66-3.86,8.73-6.78,12.21-5.98,8.9-15.37,16-28.17,21.29-12.8,5.29-25.18,7.93-37.15,7.93-2.64,0-5.29-.14-7.93-.42-14.75-1.25-26.16-8-34.23-20.24Zm102.05-120.63c-1.25-.28-2.57-.42-3.97-.42-6.12,0-12.94,3.2-20.45,9.6-9.18,7.93-17.74,17.98-25.67,30.16-7.93,12.17-13.77,23.69-17.53,34.54,11.27-5.7,22.96-13.98,35.06-24.83,12.1-10.85,20.94-20.24,26.5-28.17,5.57-7.93,8.35-13.5,8.35-16.7,0-1.95-.77-3.34-2.3-4.17Z"/>
    <path class="cls-3" d="m959.79,405.92c2.78-5.15,6.3-7.76,10.54-7.83s7.76,1.29,10.54,4.07c2.09,1.95,3.13,4.03,3.13,6.26,0,.97-.21,2.02-.63,3.13l-74.5,147.76c-5.01,9.04-13.15,14.82-24.42,17.32-2.37.56-4.73.83-7.1.83-9.04,0-18.16-3.76-27.34-11.27-5.98-7.51-8.97-18.92-8.97-34.23,0-6.26.49-13.08,1.46-20.45l-18.37,47.79c-5.01,9.04-13.15,14.82-24.42,17.32-2.37.56-4.73.83-7.1.83-11.13,0-20.24-3.76-27.34-11.27-5.84-6.4-8.77-16.77-8.77-31.1,0-1.25.14-6.23.42-14.92.28-8.7,1.88-22.71,4.8-42.05,2.23-16,3.83-31.1,4.8-45.29.28-3.48.42-6.75.42-9.81,0-9.88-1.18-18.23-3.55-25.04l5.01.42c15.17.28,27.27,2.78,36.31,7.51,7.93,4.03,11.9,13.08,11.9,27.13,0,2.37-.14,4.87-.42,7.51l-8.56,99.76,43.62-118.54h.21v-.21c0-9.32-1.11-17.18-3.34-23.58l5.01.42c15.17.28,27.34,2.78,36.52,7.51,7.79,4.03,11.69,12.94,11.69,26.71,0,2.5-.14,5.15-.42,7.93l-8.35,99.76,67.2-134.4Z"/>
  </g>
  <path class="cls-1" d="m411.9,392.44c-61.75,20.73-124.5,37.17-189.84,40.42-25.58,1.27-51.4-.36-76.99-2.25-6.71-.5-15.97-5.55-18.52-11.06-2.18-4.71,1.55-15.5,6.19-19.42,16.96-14.34,35.06-27.45,53.48-39.91,6.56-4.43,8.83-7.76,7.12-15.78-7.15-33.55-7-67.25-.5-100.99,6.4-33.22,14.92-66.07,13.99-100.44-.47-17.12,10.05-28.88,25.38-34.88,32.25-12.64,65.35-17.43,99.67-8.31,4.61,1.23,10.69-.17,15.28-2.18,23.79-10.44,46.63-23.51,71.12-31.78,31.23-10.55,58.7-.92,80.6,23.89,22.41,25.38,35.3,55.92,46.68,87.13,7.01,19.23,12.76,38.94,18.68,58.55,3.02,10,7.65,14.24,19.24,11.87,13.03-2.67,26.66-3.06,40.04-3.18,7.66-.07,15.67,1.43,22.95,3.91,11.81,4.02,14.94,11.51,7.42,21.46-7.95,10.52-17.48,20.6-28.24,28.13-38.32,26.8-79.47,48.55-123.79,63.92-29.96,10.39-59.96,20.63-89.95,30.93Z"/>
  <path class="cls-2" d="m193.47,352.09c104.41-17.66,204.27-53.32,301.22-95.26-88.51,53.7-197.22,92-301.22,95.26h0Z"/>
</svg>