<?xml version="1.0" encoding="UTF-8"?>
<svg id="Camada_1" data-name="Camada 1" xmlns="http://www.w3.org/2000/svg" viewBox="0 0 800 800">
  <defs>
    <style>
      .cls-1 {
        fill: #fff;
      }

      .cls-1, .cls-2 {
        stroke-width: 0px;
      }

      .cls-2 {
        fill: #c41a2f;
      }
    </style>
  </defs>
  <path class="cls-2" d="m428.93,612.92c-90.88,30.51-183.25,54.71-279.4,59.48-37.66,1.87-75.65-.53-113.32-3.32-9.87-.73-23.51-8.16-27.26-16.28-3.21-6.94,2.28-22.81,9.11-28.59,24.97-21.11,51.6-40.41,78.71-58.74,9.65-6.52,13-11.43,10.48-23.23-10.53-49.37-10.3-98.97-.73-148.64,9.42-48.89,21.96-97.25,20.58-147.82-.69-25.2,14.8-42.5,37.36-51.34,47.47-18.6,96.19-25.66,146.7-12.23,6.79,1.8,15.73-.25,22.49-3.21,35.02-15.36,68.63-34.6,104.67-46.77,45.97-15.53,86.4-1.35,118.63,35.16,32.98,37.36,51.96,82.31,68.7,128.23,10.32,28.31,18.78,57.31,27.5,86.18,4.44,14.71,11.26,20.96,28.31,17.47,19.18-3.93,39.24-4.51,58.92-4.68,11.28-.1,23.07,2.11,33.78,5.75,17.38,5.92,21.99,16.94,10.93,31.59-11.7,15.49-25.73,30.32-41.57,41.4-56.4,39.45-116.96,71.46-182.2,94.08-44.09,15.29-88.25,30.36-132.38,45.53Z"/>
  <path class="cls-1" d="m107.44,553.52c154.27-22.75,301.99-75.46,443.34-140.21-134.13,76.92-288.2,131.48-443.34,140.21h0Z"/>
</svg>