<?xml version="1.0" encoding="UTF-8"?>
<svg id="Camada_1" data-name="Camada 1" xmlns="http://www.w3.org/2000/svg" viewBox="0 0 1000 1000">
  <defs>
    <style>
      .cls-1 {
        fill: #c41a2f;
        stroke-width: 0px;
      }
    </style>
  </defs>
  <path class="cls-1" d="m499.11,995.28c-44.59,0-89.28-1.86-133.73.45-62.86,3.29-87.84-22.34-85.19-84.64,1.8-42.3,12.34-80.63,35.15-115.68,49.46-76.01,141.75-114.18,228.86-95.21,90.91,19.79,159.16,90.9,172.59,182.19,3.09,21,2.36,42.98.32,64.21-2.75,28.5-28.31,48.45-59.44,48.6-52.85.29-105.68.09-158.52.09h-.03Z"/>
  <path class="cls-1" d="m610.66,564.88c-.17,61.67-50.18,111.15-112.01,110.78-61.19-.37-110.43-50.14-110.28-111.53.16-61.62,50.2-111.12,112.01-110.78,61.18.34,110.41,50.12,110.28,111.53Z"/>
  <path class="cls-1" d="m749.77,886.92c-4.98-39.74-17.88-75.78-39.69-109.35,17.08-20,38.2-34.07,62.43-43.57,87.71-34.39,187.98,13.37,216.41,102.97,8.16,25.74-8.58,50.33-35.34,50.46-66.38.37-132.77.1-199.18.08-1.27,0-2.55-.32-4.64-.59Z"/>
  <path class="cls-1" d="m249.17,887.55h-40.61c-52.85,0-105.7.03-158.55,0-32.64-.03-49.19-23.65-38.36-54.68,39.52-113.32,185.09-147.15,270.52-62.86,2.33,2.28,4.45,4.78,6.89,7.43-21.83,33.48-34.86,69.82-39.87,110.14l-.03-.03Z"/>
  <path class="cls-1" d="m58.78,396.31c3.23-12.08,6.09-22.91,9.03-33.72,4.48-16.56,8.66-33.19,13.7-49.59,2.09-6.86.42-10.99-4.98-15.23-20.77-16.32-41.38-32.88-61.78-49.64-2.97-2.44-4.48-6.62-6.67-10.01,3.84-1.77,7.6-4.85,11.55-5.11,25.7-1.67,51.44-2.99,77.19-3.79,8.5-.26,13.01-3.31,15.89-11.47,8.37-23.63,17.32-47.05,26.6-70.31,1.72-4.29,6.01-7.58,9.11-11.31,2.97,3.89,6.99,7.39,8.74,11.79,9.38,23.6,18.44,47.34,27.07,71.21,2.54,6.99,6.49,9.75,13.78,10.01,26.73,1.01,53.46,2.33,80.16,3.97,3.34.21,6.52,3.05,9.77,4.66-1.75,3.23-2.7,7.39-5.32,9.56-20.37,16.82-40.9,33.46-61.78,49.67-6.49,5.03-7.84,9.91-5.56,17.8,7.39,25.32,14.07,50.86,20.61,76.43.82,3.26-.82,7.15-1.32,10.75-3.6-.61-7.84-.16-10.68-1.96-22.28-14.17-44.45-28.53-66.31-43.37-6.7-4.56-11.71-4.87-18.62-.13-22.07,15.07-44.58,29.54-67.13,43.89-2.6,1.64-6.67,1.93-9.77,1.38-1.56-.29-2.49-3.95-3.28-5.38v-.11Z"/>
  <path class="cls-1" d="m760.49,396.18c4.02-15.02,7.68-28.72,11.4-42.39,3.54-13.03,6.7-26.23,10.97-39.02,2.75-8.34.34-13.22-6.37-18.39-20.39-15.74-40.33-32-60.2-48.4-2.92-2.41-4.32-6.68-6.42-10.07,3.55-1.7,6.99-4.64,10.65-4.87,25.04-1.62,50.1-3.07,75.18-3.68,10.25-.24,15.96-3.23,19.47-13.64,8-23.74,17.33-47.02,26.63-70.28,1.45-3.66,5.59-6.25,8.47-9.33,2.6,3.02,6.28,5.64,7.65,9.14,9.56,24.21,19.03,48.5,27.69,73.03,2.84,8,7.28,10.57,15.23,10.86,26.07.95,52.13,2.22,78.15,3.87,3.63.24,7.07,3.18,10.62,4.85-2.04,3.44-3.36,7.76-6.28,10.17-19.84,16.42-39.81,32.66-60.19,48.43-6.7,5.19-8.63,10.17-6.14,18.54,7.12,24,13.56,48.24,19.7,72.53,1.15,4.5-.37,9.67-.66,14.52-4.69-1.4-10.01-1.85-13.98-4.37-21.46-13.59-42.73-27.5-63.79-41.75-6.14-4.16-10.77-4-16.93.13-22.43,15.13-45.16,29.8-67.95,44.4-2.43,1.56-6.28,2.41-8.9,1.64-1.94-.56-2.97-4.27-4-5.91v-.03Z"/>
  <path class="cls-1" d="m410.15,396.18c6.54-24.19,12.87-46.73,18.76-69.41,7.2-27.76,10.25-19.26-12.4-37.91-17.09-14.07-34.57-27.66-51.58-41.8-2.6-2.15-3.52-6.28-5.25-9.48,3.31-1.56,6.57-4.32,9.96-4.53,25.38-1.59,50.78-3.07,76.21-3.71,9.88-.24,15.33-3.13,18.76-13.14,8.2-24.03,17.66-47.63,27.04-71.21,1.38-3.44,5.12-5.94,7.77-8.88,2.7,2.89,6.53,5.3,7.9,8.72,9.59,24.21,19.07,48.5,27.73,73.06,2.94,8.34,7.6,11.05,15.98,11.31,26.08.87,52.15,2.25,78.2,3.84,3.44.21,6.7,2.86,10.06,4.4-1.88,3.44-2.97,7.87-5.77,10.2-20.11,16.64-40.4,33.06-60.98,49.11-6.28,4.9-8.48,9.35-6.08,17.56,7.48,25.3,14.15,50.86,20.65,76.43.87,3.47-1.04,7.63-1.64,11.47-3.6-.77-7.79-.61-10.69-2.46-22.54-14.38-44.92-29.01-67.12-43.92-5.76-3.87-10.2-4-16.09-.05-22.47,15.1-45.19,29.83-68.03,44.37-2.65,1.7-6.73,2.44-9.75,1.78-1.8-.4-2.86-4.35-3.66-5.7v-.05Z"/>
  <path class="cls-1" d="m749.1,617.42c-.05-46.22,36.74-83.09,82.94-83.13,46.07-.05,83.37,36.99,83.47,82.92.11,45.56-37.53,83.28-83.26,83.42-45.77.13-83.13-37.2-83.18-83.18l.03-.04Z"/>
  <path class="cls-1" d="m166.65,534.3c46.23-.1,83.21,36.64,83.29,82.81.11,46.08-36.9,83.34-82.86,83.51-45.59.15-83.39-37.43-83.55-83.1-.16-45.79,37.11-83.1,83.13-83.24v.03Z"/>
  <path class="cls-1" d="m658.37,84.78c3.95,3.13,10.48,5.8,12.05,10.23,1.74,4.95,1.11,13.72-2.23,16.98-18.8,18.38-38.56,35.84-58.43,53.14-6.47,5.62-16.14,4.11-21.27-2.28-5.51-6.84-5.91-14.65.37-20.56,19.18-18.04,38.91-35.5,58.65-52.95,2.28-2.01,5.88-2.52,10.89-4.56h-.03Z"/>
  <path class="cls-1" d="m340.48,84.06c5.93,3.13,10.46,4.53,13.75,7.39,17.83,15.66,35.42,31.58,52.93,47.6,8.5,7.79,9.3,17.22,2.52,24.24-6.36,6.57-15.58,6.38-23.76-.87-17.72-15.79-35.26-31.76-52.98-47.55-5.8-5.17-8.66-11.82-5.22-18.49,2.49-4.87,8.19-8.08,12.74-12.29l.03-.03Z"/>
  <path class="cls-1" d="m524.37,47.56c0,9.22.18,18.44-.05,27.66-.27,10.68-6.84,17.51-16.19,17.3-8.98-.21-15.28-6.81-15.42-17.03-.23-18.44-.23-36.9,0-55.34.14-10.83,6.55-17.32,16.16-17.14,9.2.18,15.16,6.52,15.45,16.87.23,9.22.05,18.44.05,27.66v.03Z"/>
</svg>