<?xml version="1.0" encoding="UTF-8"?>
<svg id="Camada_1" data-name="Camada 1" xmlns="http://www.w3.org/2000/svg" viewBox="0 0 1000 1000">
  <defs>
    <style>
      .cls-1 {
        fill: #c41a2f;
        stroke-width: 0px;
      }
    </style>
  </defs>
  <path class="cls-1" d="m471.1,996.8c-18.5-2.5-37.11-4.27-55.44-7.64-140.61-26-250.35-99.33-330.02-217.59-44.81-66.53-70.44-140.42-78.99-220.11-9.59-89.59,7.11-174.77,44.74-256.18.24-.53.95-.85,1.84-1.63,1.8,1.6,3.71,3.18,5.44,4.93,25.83,25.8,51.51,51.75,77.55,77.31,4.35,4.27,5.07,7.91,3.35,13.47-14.9,47.72-20.51,96.51-15.53,146.34,6.65,66.53,28.69,127.48,67.43,182.12,39.52,55.71,90.15,98.25,152.51,126.41,67.89,30.64,138.67,41.13,212.56,29.79,69.32-10.61,131.2-38.15,184.79-83.01,64.89-54.3,107.53-122.97,126.83-205.6,16.36-69.98,12.53-139.04-10.77-207-27.09-78.98-75.62-141.97-143.94-189.45-48.72-33.84-102.92-54.35-161.81-62.67-54.66-7.72-108.19-3.06-160.76,13.08-7.11,2.18-11.48,1.21-16.75-4.2-24.56-25.22-49.64-49.95-74.52-74.86-2.18-2.21-4.25-4.54-8.2-8.79,26.89-9.66,51.87-20.07,77.7-27.7,269-79.28,553.55,92.87,615.33,370.31,4.94,22.28,6.79,45.25,10.11,67.89.46,3.16,1.17,6.26,1.78,9.39v58.16c-.78,6.68-1.63,13.35-2.37,20.05-8.74,81.73-35,157.36-81.44,225.21-79.65,116.39-188.72,188.67-327.88,214.28-18.33,3.37-36.94,5.15-55.44,7.66h-58.16.05Z"/>
  <path class="cls-1" d="m256.97,413.3c10.27,0,19.95-.34,29.61.19,3.13.17,6.82,1.84,9.08,4.03,19.81,19.47,39.47,39.08,58.84,58.98,2.26,2.31,3.76,6.8,3.4,10-8.84,75.25,47.28,147.44,122.8,157.58,92.26,12.4,171.08-58.64,166.44-151.27-4.49-89.2-85.47-146.54-159.62-136.47-2.89.39-6.99-1.19-9.15-3.28-20.1-19.64-39.93-39.54-59.66-59.54-1.84-1.87-3.47-4.83-3.57-7.33-.41-10.29-.17-20.61-.17-30.66,102.92-40.25,231.64-6.14,303.68,98.21,70,101.41,57.48,238.8-30.17,330.14-85.3,88.91-222.97,103.45-330.36,34.88-99.5-63.52-143.48-195.69-101.12-305.48h-.03Z"/>
  <path class="cls-1" d="m124.22,120.58c0-28.57-.63-55.97.39-83.33.29-8.08,3.57-17.23,8.4-23.69,8.28-11.02,24.39-12.11,35.85-4.32,3.69,2.52,7.02,5.68,10.19,8.88,54.98,55.51,109.84,111.2,164.99,166.56,9.05,9.1,13.18,19.05,12.94,31.94-.53,29.37.05,58.77-.34,88.16-.1,6.75,2.09,11.31,6.77,15.97,51.29,51.02,102.36,102.22,153.46,153.43,3.4,3.42,6.89,6.89,9.56,10.87,7.79,11.68,5.87,26.48-4.22,36.24-9.85,9.54-24.18,11.09-35.56,3.45-3.98-2.67-7.48-6.14-10.88-9.56-51.19-51.1-102.38-102.19-153.38-153.48-4.68-4.71-9.27-6.8-15.99-6.7-30.34.36-60.71,0-91.05.24-10.7.1-19.35-3.45-26.85-10.97-57.02-57.14-114.11-114.23-171.22-171.3-9.68-9.69-14.44-20.87-8.86-34.18,5.7-13.57,16.99-18.4,31.22-18.28,27.74.19,55.46.05,84.62.05h-.02Z"/>
</svg>