<?xml version="1.0" encoding="UTF-8"?>
<svg id="Camada_1" data-name="Camada 1" xmlns="http://www.w3.org/2000/svg" viewBox="0 0 1000 800">
  <defs>
    <style>
      .cls-1 {
        fill: #c41a2f;
        stroke-width: 0px;
      }
    </style>
  </defs>
  <path class="cls-1" d="m964,630.4v25.38c-.49,1.09-1.23,2.13-1.43,3.27-7.79,46.63-34.96,80.08-74.45,102.83-75.38,43.4-153.46,44.88-231.43,7.4-39.94-19.19-71-49.04-83.06-93.11-5.24-19.1-4.63-39.94-5.76-60.04-.83-14.36-.16-28.79-.16-44.37-45.49,18-89.89,18.13-135.35-.16,0,21.71-.26,42.16.05,62.62.66,44.32-17.02,80.21-50.02,108.92-36.43,31.67-79.65,47.32-127.17,50.94-63.6,4.83-122.1-9.44-170.81-52.53-38.42-33.99-55.61-76.42-44.99-128.31,7.8-38.11,14.96-76.37,22.42-114.56,4.86-24.87,8.51-50.07,14.96-74.5,9.72-36.91,35.06-61.85,67.44-80.22,4.6-2.61,8.06-5.03,8.79-11.17,4.91-40.75,11.26-81.35,15.12-122.2,2.73-28.78,15.01-51.08,37.14-68.65,57.98-46.03,159.22-42.38,215.35,7.54,21.57,19.2,33.78,42.19,30.32,71.92-.36,3.08-.05,6.23-.05,10.03,33.16-10.81,65.45-10.33,97.56-.54.43-1.64.71-2.2.69-2.77-.05-3.01,0-6.07-.31-9.05-3.08-28.02,8.56-49.87,28.64-68.08,53.85-48.83,148.78-55.52,209.33-14.6,26.45,17.87,42.02,41.82,44.89,74.69,3.18,36.36,9.55,72.42,13.19,108.73,1.37,13.87,5.17,23.89,18.86,29.08,4.38,1.66,8.11,5.19,11.93,8.15,23.2,18.12,41.48,40.08,47.9,69.38,8.2,37.41,14.83,75.17,22.23,112.77,5.97,30.41,12.07,60.83,18.11,91.24l.05-.02Zm-200.95,109.4c41.54-.41,78.13-9.75,109.68-34.28,18.89-14.69,32.97-32.91,35.13-57.85,2.55-29.77-11.94-51.86-34.06-69.19-37.05-29.03-80.12-38.16-126.18-34.2-36.01,3.1-69.02,14.63-96.26,39.39-37.7,34.3-37.95,80.88-.31,115.3,32.18,29.45,71.54,39.89,111.97,40.83h.02Zm-530.31,0c40.87-.44,77.63-10.1,109.37-34.95,45.65-35.74,46.25-88.65,1.4-125.44-26.57-21.79-57.79-32.33-91.52-35.15-45.7-3.84-88.44,5.17-125.47,33.7-45.37,34.98-46.93,86.92-3.44,124.21,31.69,27.17,69.83,36.98,109.66,37.65v-.02Zm267.19-203.25c17.08-.05,32.89-4.1,46.13-15.43,16.77-14.34,16.93-35.37.58-50.25-22.71-20.68-66.9-21.64-90.77-1.99-19.6,16.12-19.34,38.82.83,54.32,12.7,9.75,27.44,13.32,43.23,13.35Z"/>
  <path class="cls-1" d="m672.79,4.86c28.85,1.85,51.95,8.6,69.33,28.94,11.45,13.39,11.85,29.91,13.01,46.01.48,6.52-4.88,9.41-11.21,8.58-7.45-1-14.79-2.8-22.25-3.77-37.25-4.81-73.28-.09-108.16,13.75-15.81,6.26-20.75,3.27-20.82-13.49-.05-12.47-1.56-26,2.61-37.19,8.5-22.78,29.39-32.47,51.41-38.61,9.48-2.63,19.55-3.25,26.07-4.27v.05Z"/>
  <path class="cls-1" d="m407.83,72.66c-.45,6.02-.69,12.07-1.4,18.04-1.19,10.03-5.74,12.49-15.64,9.5-16.12-4.88-32.12-10.26-48.52-13.89-26.6-5.88-53.38-4.36-79.98,1.04-15.64,3.15-19.37-.36-17.45-16.19,5.24-42.74,37.83-68.6,82.99-65.71,25.72,1.66,49.23,8.75,67.65,28.04,10.48,11,14.53,24.08,12.37,39.14l-.02.02Z"/>
</svg>