<?xml version="1.0" encoding="UTF-8"?>
<svg id="Camada_2" data-name="Camada 2" xmlns="http://www.w3.org/2000/svg" viewBox="0 0 386.04 385.27">
  <defs>
    <style>
      .cls-1 {
        fill: #fff;
      }

      .cls-1, .cls-2 {
        stroke-width: 0px;
      }

      .cls-2 {
        fill: #c41a2f;
      }
    </style>
  </defs>
  <g id="Camada_1-2" data-name="Camada 1">
    <g>
      <path class="cls-2" d="m0,204.69c0-8.03,0-16.05,0-24.08.56-4.58,1.03-9.18,1.68-13.75,5.55-39.31,21.42-73.92,48.17-103.29C79.64,30.87,116.41,10.47,160.14,2.91c6.9-1.19,13.88-1.95,20.82-2.91,8.04,0,16.09,0,24.13,0,.97.21,1.92.54,2.9.61,29,2.17,56.25,10.27,81.23,25.09,51.34,30.47,82.81,75.04,93.87,133.74,1.32,6.99,1.99,14.1,2.96,21.16v24.08c-.95,6.93-1.71,13.9-2.89,20.79-15.31,88.96-90.9,155.7-181.28,159.59-47.18,2.03-89.85-11.28-127.12-40.37-39.1-30.51-63.13-70.36-71.86-119.22C1.66,218.59.95,211.62,0,204.69ZM199.16,72.24h-3.66c-36.19,0-72.38,0-108.57,0-7.39,0-10.56,3.13-10.56,10.53-.02,73.24-.02,146.48,0,219.73,0,7.4,3.18,10.54,10.56,10.54,50.89,0,101.78,0,152.68,0,7.67,0,10.72-3.04,10.72-10.69,0-21.32,0-42.64,0-63.96v-3.92c-1.48,1.37-2.39,2.16-3.25,3.01-11.11,11.08-22.2,22.18-33.35,33.22-1.22,1.21-2.66,2.67-4.21,2.98-11.19,2.25-22.42,4.34-33.68,6.26-3.99.68-5.86-1.58-5.06-5.59,2.01-10.07,3.91-20.17,6.21-30.17.57-2.5,2.02-5.16,3.83-6.98,22.29-22.45,44.7-44.78,67.14-67.07,1.75-1.74,2.44-3.48,2.42-5.91-.11-12.29-.05-24.58-.05-36.87v-4.02c-1.73,0-3.08,0-4.43,0-13.57,0-27.14.01-40.71,0-4.75,0-6.01-1.26-6.02-6.02-.02-12.29,0-24.58,0-36.87,0-2.6,0-5.2,0-8.17Zm65.49,93.47c-25.4,25.35-50.85,50.75-75.72,75.56,6.89,7.04,14.02,14.32,20.8,21.25,25.3-25.24,50.74-50.63,75.95-75.79-6.95-6.95-14.1-14.09-21.04-21.02Zm-57.27-50.84h33.35c-11.13-10.95-22.44-22.09-33.35-32.83v32.83Zm96.34,54.62c5-4.35,7.16-9.93,5.24-16.58-1.78-6.18-6.1-9.93-12.55-10.92-6.07-.92-10.88,1.31-14.49,5.64,7.4,7.42,14.53,14.58,21.79,21.86Zm-32.75-10.57c7.19,7.09,14.43,14.23,21.45,21.14,1.46-1.3,3.19-2.84,4.67-4.16-7.27-7.28-14.4-14.41-21.68-21.7-1.42,1.51-3.01,3.2-4.44,4.72Zm-69.68,108.21c-5.96-5.86-11.56-11.36-17.39-17.09-1.37,6.84-2.75,13.72-4.23,21.12,7.55-1.41,14.43-2.69,21.62-4.03Z"/>
      <path class="cls-1" d="m199.16,72.24c0,2.97,0,5.57,0,8.17,0,12.29-.02,24.58,0,36.87,0,4.76,1.26,6.02,6.02,6.02,13.57.02,27.14,0,40.71,0,1.35,0,2.7,0,4.43,0v4.02c0,12.29-.06,24.58.05,36.87.02,2.44-.66,4.17-2.42,5.91-22.45,22.29-44.86,44.62-67.14,67.07-1.81,1.82-3.25,4.48-3.83,6.98-2.3,10.01-4.2,20.1-6.21,30.17-.8,4.01,1.07,6.27,5.06,5.59,11.26-1.92,22.49-4,33.68-6.26,1.55-.31,2.99-1.77,4.21-2.98,11.15-11.04,22.24-22.14,33.35-33.22.85-.85,1.76-1.64,3.25-3.01v3.92c0,21.32,0,42.64,0,63.96,0,7.65-3.05,10.69-10.72,10.69-50.89,0-101.78,0-152.68,0-7.38,0-10.56-3.14-10.56-10.54-.02-73.24-.02-146.48,0-219.73,0-7.41,3.18-10.53,10.56-10.53,36.19,0,72.38,0,108.57,0h3.66Zm-35.81,106.13c-20.85,0-41.69.02-62.54-.02-2.94,0-5.58.59-5.64,4-.05,3.41,2.57,4.21,5.51,4.14.5-.01,1,0,1.51,0,40.81,0,81.62,0,122.43-.01,1.37,0,3.05.3,4.04-.36,1.26-.84,2.71-2.54,2.67-3.83-.04-1.29-1.61-2.83-2.9-3.68-.89-.59-2.44-.23-3.69-.23-20.47,0-40.94,0-61.41,0Zm-.11-26.98c20.48,0,40.96,0,61.44,0,1.13,0,2.54.37,3.33-.16,1.37-.92,3-2.26,3.35-3.71.54-2.23-1.01-3.74-3.42-3.96-1-.09-2.01-.08-3.01-.08-41.09,0-82.18,0-123.27,0-1,0-2.28-.32-2.96.16-1.38.98-3.5,2.56-3.36,3.63.19,1.48,2.04,2.94,3.5,3.97.76.54,2.2.15,3.33.15,20.36,0,40.71,0,61.07,0Zm-21.49-34.85c8.78,0,17.57,0,26.35,0,5.14,0,10.29.02,15.43-.02,2.78-.02,4.72-1.29,4.62-4.23-.09-2.71-1.91-3.91-4.57-3.87-.63,0-1.25,0-1.88,0-26.72,0-53.45,0-80.17,0-.75,0-1.51-.03-2.26.02-2.48.18-4.1,1.5-4.12,3.98-.03,2.51,1.66,3.8,4.08,4.06.99.11,2.01.06,3.01.06,13.17,0,26.35,0,39.52,0Zm-1.53,104.78c13.68,0,27.36-.02,41.04.02,2.85,0,4.76-1.12,4.74-4.05-.01-2.74-1.9-3.89-4.54-3.89-.75,0-1.51-.02-2.26-.02-25.73,0-51.46,0-77.19.01-1.37,0-2.8-.03-4.11.31-2.44.65-3.81,3.48-2.24,5.26,1.11,1.27,3.3,2.23,5.02,2.26,13.18.18,26.36.1,39.53.1Zm-9.75,35.09c9.91,0,19.82,0,29.73,0,2.88,0,5.58-.59,5.58-4.06,0-3.44-2.59-4.07-5.54-4.05-8.4.06-16.81.02-25.21.02-11.67,0-23.33-.03-35,.02-3.56.01-5.57,2.25-4.71,5.07.83,2.71,3.04,3.01,5.42,3.01,9.91,0,19.82,0,29.73,0Z"/>
      <path class="cls-1" d="m264.65,165.71c6.94,6.93,14.09,14.07,21.04,21.02-25.21,25.16-50.66,50.55-75.95,75.79-6.79-6.93-13.91-14.21-20.8-21.25,24.87-24.82,50.31-50.21,75.72-75.56Z"/>
      <path class="cls-1" d="m207.37,114.86v-32.83c10.91,10.74,22.23,21.88,33.35,32.83h-33.35Z"/>
      <path class="cls-1" d="m303.71,169.49c-7.26-7.28-14.39-14.44-21.79-21.86,3.61-4.32,8.42-6.56,14.49-5.64,6.44.98,10.77,4.74,12.55,10.92,1.91,6.65-.25,12.23-5.24,16.58Z"/>
      <path class="cls-1" d="m270.96,158.91c1.43-1.52,3.02-3.21,4.44-4.72,7.28,7.29,14.41,14.42,21.68,21.7-1.48,1.32-3.21,2.86-4.67,4.16-7.02-6.92-14.26-14.06-21.45-21.14Z"/>
      <path class="cls-1" d="m201.28,267.12c-7.19,1.34-14.06,2.62-21.62,4.03,1.48-7.41,2.86-14.28,4.23-21.12,5.83,5.73,11.42,11.23,17.39,17.09Z"/>
      <path class="cls-2" d="m163.35,178.37c20.47,0,40.94,0,61.41,0,1.25,0,2.8-.36,3.69.23,1.29.85,2.86,2.39,2.9,3.68.04,1.29-1.41,2.99-2.67,3.83-.99.66-2.67.36-4.04.36-40.81.01-81.62.01-122.43.01-.5,0-1-.01-1.51,0-2.95.07-5.56-.73-5.51-4.14.05-3.41,2.7-4,5.64-4,20.85.04,41.69.02,62.54.02Z"/>
      <path class="cls-2" d="m163.24,151.39c-20.36,0-40.71,0-61.07,0-1.13,0-2.56.39-3.33-.15-1.45-1.03-3.3-2.49-3.5-3.97-.14-1.08,1.98-2.65,3.36-3.63.68-.48,1.95-.16,2.96-.16,41.09,0,82.18,0,123.27,0,1,0,2.01-.01,3.01.08,2.42.22,3.96,1.73,3.42,3.96-.35,1.45-1.98,2.78-3.35,3.71-.79.53-2.2.16-3.33.16-20.48,0-40.96,0-61.44,0Z"/>
      <path class="cls-2" d="m141.75,116.55c-13.17,0-26.35,0-39.52,0-1,0-2.02.05-3.01-.06-2.42-.26-4.1-1.55-4.08-4.06.03-2.48,1.65-3.8,4.12-3.98.75-.05,1.5-.02,2.26-.02,26.72,0,53.45,0,80.17,0,.63,0,1.25.01,1.88,0,2.66-.04,4.49,1.16,4.57,3.87.09,2.94-1.84,4.21-4.62,4.23-5.14.04-10.29.02-15.43.02-8.78,0-17.57,0-26.35,0Z"/>
      <path class="cls-2" d="m140.22,221.33c-13.18,0-26.36.08-39.53-.1-1.72-.02-3.9-.99-5.02-2.26-1.57-1.79-.2-4.62,2.24-5.26,1.31-.35,2.73-.31,4.11-.31,25.73-.02,51.46-.01,77.19-.01.75,0,1.51.02,2.26.02,2.64,0,4.53,1.15,4.54,3.89.01,2.93-1.9,4.06-4.74,4.05-13.68-.04-27.36-.02-41.04-.02Z"/>
      <path class="cls-2" d="m130.46,256.42c-9.91,0-19.82,0-29.73,0-2.38,0-4.59-.3-5.42-3.01-.86-2.81,1.15-5.05,4.71-5.07,11.67-.05,23.33-.02,35-.02,8.4,0,16.81.04,25.21-.02,2.95-.02,5.54.61,5.54,4.05,0,3.47-2.7,4.06-5.58,4.06-9.91,0-19.82,0-29.73,0Z"/>
    </g>
  </g>
</svg>