<?xml version="1.0" encoding="UTF-8"?>
<svg id="Camada_2" data-name="Camada 2" xmlns="http://www.w3.org/2000/svg" viewBox="0 0 382.92 382.8">
  <defs>
    <style>
      .cls-1 {
        fill: #fff;
      }

      .cls-1, .cls-2 {
        stroke-width: 0px;
      }

      .cls-2 {
        fill: #29a71a;
      }
    </style>
  </defs>
  <g id="Camada_1-2" data-name="Camada 1">
    <g>
      <path class="cls-2" d="m198.02,382.8h-13.47c-1.83-.29-3.65-.62-5.49-.86-8.75-1.13-17.64-1.64-26.25-3.44-42.8-8.97-78.82-29.91-106.99-63.37C7.08,269.1-6.89,215.88,3.13,156.72c5.87-34.68,20.81-65.51,44.43-91.63C92.63,15.25,149-5.86,215.67,1.39c28.5,3.1,55,12.9,78.94,28.82,50.24,33.43,79.42,80.05,86.73,140.13.57,4.68,1.06,9.37,1.59,14.05v13.48c-.29,1.95-.64,3.9-.87,5.86-.86,7.29-1.27,14.65-2.6,21.85-6.44,34.85-21.26,65.77-44.9,92.18-32.66,36.47-73.33,57.83-122.11,63.43-4.8.55-9.61,1.08-14.41,1.62Zm-6.87-312.33c-7.64.96-15.36,1.49-22.9,2.94-53.04,10.23-94.71,56.2-96.12,114.63-.45,18.6,3.6,36.32,11.41,53.21.81,1.76,1.12,4.11.75,6.01-3.71,18.78-7.67,37.52-11.44,56.29-1.22,6.08,1.47,8.56,7.44,7.15,18.14-4.3,36.26-8.7,54.45-12.83,2.19-.5,4.94-.17,7.01.75,22.49,9.92,45.74,13.14,70.03,8.88,65.33-11.45,108.84-73.95,96.62-138.91-10.71-56.94-59.41-97.46-117.23-98.11Z"/>
      <path class="cls-1" d="m191.14,70.47c57.82.66,106.52,41.18,117.23,98.11,12.22,64.96-31.29,127.46-96.62,138.91-24.29,4.26-47.55,1.03-70.03-8.88-2.07-.91-4.82-1.24-7.01-.75-18.18,4.13-36.3,8.53-54.45,12.83-5.96,1.41-8.66-1.06-7.44-7.15,3.77-18.77,7.73-37.51,11.44-56.29.37-1.9.07-4.25-.75-6.01-7.81-16.9-11.85-34.62-11.41-53.21,1.4-58.43,43.08-104.4,96.12-114.63,7.54-1.45,15.26-1.99,22.9-2.94Zm-85.89,206.68c1.62-.26,2.68-.37,3.71-.61,9.08-2.1,18.23-3.98,27.21-6.46,3.94-1.09,7.09-.57,10.58,1.28,19.83,10.54,40.79,13.79,62.92,9.51,49.67-9.6,82.95-59.55,72.5-108.93-12.37-58.41-73.38-90.19-128.06-66.7-38.76,16.65-61.51,58.96-54.18,100.42,1.91,10.8,5.55,20.91,10.8,30.46,1.68,3.06,1.93,5.89,1.19,9.21-2.29,10.31-4.35,20.66-6.67,31.8Z"/>
      <path class="cls-2" d="m105.26,277.15c2.32-11.14,4.38-21.5,6.67-31.8.74-3.32.49-6.16-1.19-9.21-5.24-9.54-8.89-19.66-10.8-30.46-7.32-41.47,15.42-83.77,54.18-100.42,54.68-23.49,115.69,8.29,128.06,66.7,10.46,49.38-22.83,99.33-72.5,108.93-22.13,4.28-43.09,1.03-62.92-9.51-3.49-1.85-6.64-2.36-10.58-1.28-8.98,2.48-18.13,4.36-27.21,6.46-1.03.24-2.1.35-3.71.61Zm119.08-28.83c9.45.74,18.44-4.21,25.45-13.31,1.06-1.38,2.11-2.78,3.08-4.23,4.77-7.08,2.45-13.45-5.72-15.78-5.38-1.54-10.9-2.69-16.12-4.64-7.1-2.66-12.53-1.37-17.56,4.5-5.02,5.87-8.03,6.09-14.66,2-12.73-7.85-23.8-17.69-33.16-29.35-4.77-5.94-4.59-8.62,0-14.58,1.14-1.48,2.77-2.83,3.26-4.51.79-2.72,1.88-6.05,1-8.44-2.83-7.69-6.32-15.16-9.92-22.54-2.58-5.3-8.67-6.61-13.26-2.88-3.26,2.66-6.2,5.77-8.93,8.99-4.66,5.51-6.89,11.88-6.71,19.27.27,11.37,4.1,21.5,10.23,30.76,12.59,19.05,29.07,34.09,48.82,45.43,9.81,5.64,20.4,9.18,34.2,9.3Z"/>
      <path class="cls-1" d="m224.34,248.32c-13.8-.12-24.39-3.66-34.2-9.3-19.75-11.35-36.22-26.39-48.82-45.43-6.13-9.27-9.96-19.4-10.23-30.76-.18-7.39,2.05-13.76,6.71-19.27,2.72-3.22,5.67-6.34,8.93-8.99,4.58-3.74,10.67-2.42,13.26,2.88,3.6,7.38,7.09,14.85,9.92,22.54.88,2.39-.2,5.72-1,8.44-.49,1.68-2.12,3.03-3.26,4.51-4.59,5.97-4.77,8.64,0,14.58,9.36,11.66,20.43,21.5,33.16,29.35,6.63,4.09,9.64,3.86,14.66-2,5.03-5.87,10.46-7.16,17.56-4.5,5.22,1.95,10.74,3.11,16.12,4.64,8.18,2.33,10.49,8.71,5.72,15.78-.97,1.45-2.01,2.85-3.08,4.23-7.01,9.09-16,14.05-25.45,13.31Z"/>
    </g>
  </g>
</svg>