<?xml version="1.0" encoding="UTF-8"?>
<svg id="Camada_1" data-name="Camada 1" xmlns="http://www.w3.org/2000/svg" viewBox="0 0 305 94">
  <defs>
    <style>
      .cls-1, .cls-2, .cls-3 {
        stroke-width: 0px;
      }

      .cls-2 {
        fill: #fff;
      }

      .cls-3 {
        fill: #c41a2f;
      }
    </style>
  </defs>
  <g>
    <path class="cls-3" d="m197.1,43.01c1.28-.21,2.44-.31,3.48-.31,1.88,0,3.51.44,4.89,1.32,1.38.88,2.18,2.24,2.41,4.08.07.46.1.93.1,1.41,0,1.33-.28,2.64-.83,3.92-2.13-1.47-4.84-2.25-8.12-2.34h-1.2c-3.05,0-6.66.3-10.84.89.53.83.79,1.87.79,3.13s-.26,2.74-.79,4.44l-.86,2.86h8.22c.09,0,.16.06.21.17.02.07.03.16.03.28v.17c-.41,2.68-1.67,4.03-3.78,4.03h-.41l-5.51-.55-7.67,25.5c-2.45-.8-4.22-1.9-5.3-3.3-.53-.69-.79-1.65-.79-2.89,0-1.31.3-2.94.89-4.89.37-1.1.98-3.06,1.84-5.87.86-2.81,1.81-5.94,2.84-9.38l-2.82-.28c-.28-.09-.44-.38-.48-.86v-.14c0-.41.09-.84.28-1.27.18-.44.49-.68.93-.72h3.06c1.05-3.6,1.9-6.74,2.55-9.43-1.26.28-2.41.41-3.44.41-2.02,0-3.65-.49-4.89-1.48-1.03-.8-1.55-1.87-1.55-3.2,0-1.15.38-2.48,1.14-3.99.5,1.74,2,2.61,4.47,2.61.41,0,1.55-.1,3.42-.29,1.87-.19,5.13-.91,9.79-2.15,2.59-.67,5.24-1.3,7.95-1.89Z"/>
    <path class="cls-3" d="m213.89,66.75c-4.66,1.28-8.49,3.76-11.51,7.43-3.02,3.67-4.63,7.5-4.83,11.49,0,.55.13.87.38.96.25.09.44.14.55.14.23,0,.46-.11.69-.34,3.3-4.11,7.11-9.65,11.42-16.62,2.11.94,3.54,1.94,4.3,2.99.76,1.05,1.14,2.05,1.14,2.99,0,.76-.18,1.59-.55,2.51l-4.68,13.69-2.2-1.31c-.14-.09-.26-.18-.38-.28-.8-.5-1.43-1.04-1.88-1.6-.45-.56-.67-1.27-.67-2.12,0-.21.01-.41.03-.62.14-1.15.74-2.78,1.82-4.89l-4.2,7.36c-1.42,2.16-2.68,3.26-3.78,3.32-1.1.06-1.7.09-1.79.09-2.57,0-4.4-1.14-5.51-3.41-.83-1.72-1.24-3.59-1.24-5.61,0-2.25.5-4.68,1.51-7.29,1.9-5,4.84-8.82,8.81-11.46,2.06-1.19,4.08-1.79,6.06-1.79.44,0,.87.03,1.31.1,2.39.34,4.12,1.76,5.2,4.23Z"/>
    <path class="cls-3" d="m240.76,66.78c-4.75,1.38-8.67,3.93-11.77,7.67-3.1,3.74-4.65,7.13-4.65,10.19,0,.34.02.7.07,1.07.23,1.03,1.09,1.55,2.58,1.55.5,0,1.09-.06,1.75-.17,2.59-.5,5.83-2.67,9.7-6.5h.03c.07,0,.11.18.14.55v.24c0,.41-.05.93-.14,1.55-.09.73-.27,1.49-.53,2.25-.26.77-.64,1.44-1.12,2.01-.99,1.47-2.53,2.64-4.65,3.51-2.11.87-4.15,1.31-6.12,1.31-.44,0-.87-.02-1.31-.07-2.43-.21-4.31-1.32-5.64-3.34-.83-1.72-1.24-3.6-1.24-5.64,0-2.25.5-4.68,1.51-7.29,1.9-4.98,4.84-8.79,8.81-11.42,2.06-1.19,4.08-1.79,6.06-1.79.44,0,.87.03,1.31.1,2.39.34,4.12,1.76,5.2,4.23Z"/>
    <path class="cls-3" d="m243.21,88.6c-.83-1.72-1.24-3.6-1.24-5.64,0-2.25.5-4.68,1.51-7.29,1.9-4.98,4.84-8.79,8.81-11.42,1.93-1.15,3.78-1.72,5.57-1.72s3.65.6,5.37,1.79c1.19.85,1.79,2.13,1.79,3.85,0,.55-.06,1.15-.17,1.79-.48,2.64-2.56,5.59-6.23,8.84-3.37,3.26-6.77,5.47-10.19,6.64l.07.28c.09.69.49,1.13,1.2,1.32.71.19,1.25.29,1.62.29,1.03,0,2.29-.33,3.78-1,2.06-.89,4.54-2.81,7.43-5.75h.03c.09,0,.15.18.17.55v.24c0,.41-.05.93-.14,1.55-.11.73-.3,1.49-.57,2.25-.26.77-.64,1.44-1.12,2.01-.99,1.47-2.53,2.64-4.65,3.51-2.11.87-4.15,1.31-6.12,1.31-.44,0-.87-.02-1.31-.07-2.43-.21-4.31-1.32-5.64-3.34Zm16.83-19.89c-.21-.05-.42-.07-.65-.07-1.01,0-2.13.53-3.37,1.58-1.51,1.31-2.92,2.97-4.23,4.97-1.31,2.01-2.27,3.91-2.89,5.69,1.86-.94,3.78-2.31,5.78-4.09s3.45-3.34,4.37-4.65c.92-1.31,1.38-2.22,1.38-2.75,0-.32-.13-.55-.38-.69Z"/>
  </g>
  <g>
    <path class="cls-3" d="m236.92,29.2c-1.32,3.29-2.45,6.51-3.42,9.66s-1.68,5.7-2.16,7.66c-.47,2.14-.71,4.11-.71,5.9,0,1.97.29,3.72.87,5.25h-3.26c-2.11-.21-3.19-1.66-3.23-4.34v-.5c0-.9.1-1.99.3-3.26l-4.75-10.28c-.64,3.44-1.43,6.53-2.35,9.27s-2.2,5.77-3.82,9.11c-.11-.03-.22-.06-.34-.09-.78-.15-1.56-.39-2.35-.72-.79-.33-1.33-.85-1.62-1.55-.09-.21-.14-.45-.14-.71,0-.63.24-1.39.71-2.29,1.67-2.68,3.16-6.44,4.48-11.3,1.32-4.86,2.17-8.86,2.53-12.01.03-1.01.44-1.89,1.23-2.64s1.63-1.24,2.51-1.47c.29-.08.54-.11.76-.11.47,0,.82.17,1.03.5.24,3.78.71,6.85,1.39,9.21.68,2.36,1.44,4.51,2.28,6.46.11.26.21.53.32.8,1.93-6.3,3.7-11.61,5.32-15.94.11-.32.21-.63.32-.92l3.9,2.73c.23.2.34.47.34.8,0,.23-.05.49-.16.78Z"/>
    <path class="cls-3" d="m234.42,55.4c-.55-1.15-.83-2.4-.83-3.76,0-1.5.34-3.12,1.01-4.86,1.27-3.32,3.23-5.86,5.87-7.62,1.28-.76,2.52-1.15,3.72-1.15s2.43.4,3.58,1.19c.8.57,1.19,1.42,1.19,2.57,0,.37-.04.76-.11,1.19-.32,1.76-1.71,3.72-4.15,5.9-2.25,2.17-4.51,3.65-6.79,4.43l.05.18c.06.46.33.75.8.88.47.13.83.19,1.08.19.69,0,1.53-.22,2.52-.67,1.38-.6,3.03-1.87,4.95-3.83h.02c.06,0,.1.12.11.37v.16c0,.28-.03.62-.09,1.03-.08.49-.2.99-.38,1.5s-.42.96-.75,1.34c-.66.98-1.69,1.76-3.1,2.34-1.41.58-2.77.87-4.08.87-.29,0-.58-.02-.87-.05-1.62-.14-2.88-.88-3.76-2.22Zm11.22-13.26c-.14-.03-.28-.05-.44-.05-.67,0-1.42.35-2.25,1.05-1.01.87-1.95,1.98-2.82,3.31s-1.51,2.6-1.93,3.8c1.24-.63,2.52-1.54,3.85-2.73s2.3-2.22,2.91-3.1c.61-.87.92-1.48.92-1.83,0-.21-.08-.37-.25-.46Z"/>
    <path class="cls-3" d="m272.34,38.81c.31-.57.69-.85,1.16-.86s.85.14,1.16.45c.23.21.34.44.34.69,0,.11-.02.22-.07.34l-8.19,16.24c-.55.99-1.44,1.63-2.68,1.9-.26.06-.52.09-.78.09-.99,0-2-.41-3-1.24-.66-.83-.99-2.08-.99-3.76,0-.69.05-1.44.16-2.25l-2.02,5.25c-.55.99-1.44,1.63-2.68,1.9-.26.06-.52.09-.78.09-1.22,0-2.22-.41-3-1.24-.64-.7-.96-1.84-.96-3.42,0-.14.02-.68.05-1.64s.21-2.5.53-4.62c.24-1.76.42-3.42.53-4.98.03-.38.05-.74.05-1.08,0-1.09-.13-2-.39-2.75l.55.05c1.67.03,3,.31,3.99.83.87.44,1.31,1.44,1.31,2.98,0,.26-.02.54-.05.83l-.94,10.97,4.79-13.03h.02v-.02c0-1.02-.12-1.89-.37-2.59l.55.05c1.67.03,3,.31,4.01.83.86.44,1.28,1.42,1.28,2.94,0,.28-.02.57-.05.87l-.92,10.97,7.39-14.77Z"/>
  </g>
  <path class="cls-1" d="m212.12,37.33c-6.79,2.28-13.69,4.09-20.87,4.44-2.81.14-5.65-.04-8.46-.25-.74-.05-1.76-.61-2.04-1.22-.24-.52.17-1.7.68-2.13,1.86-1.58,3.85-3.02,5.88-4.39.72-.49.97-.85.78-1.73-.79-3.69-.77-7.39-.05-11.1.7-3.65,1.64-7.26,1.54-11.04-.05-1.88,1.1-3.17,2.79-3.83,3.55-1.39,7.18-1.92,10.96-.91.51.13,1.17-.02,1.68-.24,2.61-1.15,5.13-2.58,7.82-3.49,3.43-1.16,6.45-.1,8.86,2.63,2.46,2.79,3.88,6.15,5.13,9.58.77,2.11,1.4,4.28,2.05,6.44.33,1.1.84,1.57,2.11,1.3,1.43-.29,2.93-.34,4.4-.35.84,0,1.72.16,2.52.43,1.3.44,1.64,1.26.82,2.36-.87,1.16-1.92,2.26-3.1,3.09-4.21,2.95-8.73,5.34-13.61,7.03-3.29,1.14-6.59,2.27-9.89,3.4Z"/>
  <path class="cls-2" d="m188.11,32.89c2.88-.47,5.72-1.07,8.53-1.76,2.81-.7,5.6-1.49,8.35-2.4,2.76-.89,5.48-1.89,8.18-2.94,2.69-1.08,5.37-2.21,8.04-3.37-2.51,1.49-5.09,2.86-7.75,4.06-2.66,1.2-5.4,2.25-8.17,3.17-2.78.9-5.61,1.66-8.49,2.21-1.43.29-2.88.51-4.33.69-1.45.15-2.91.3-4.37.34Z"/>
  <g>
    <path class="cls-1" d="m34.32,32.95c-.39,0-.94.38-1.66,1.12-.72.75-1.34,1.43-1.87,2.05l-1.61,1.93-3.1,3.95c-.73,1.39-1.3,2.54-1.72,3.46l-1.02,2.19c-.26.54-.5.92-.69,1.14-.2.22-.46.33-.79.33s-.66-.06-.96-.18c-.31-.12-.58-.27-.8-.46-.48-.4-.72-.84-.72-1.32,0-.19.14-.56.42-1.12l.72-1.53c.23-.45.49-1.03.79-1.74l1.06-2.59c1.49-3.72,2.23-6.12,2.23-7.2,0-.58-.19-1.01-.57-1.29l-.38-.26c-.13-.09-.19-.24-.19-.46s.08-.43.25-.63c.17-.2.39-.38.67-.53.57-.29,1.14-.43,1.71-.43s1.02.06,1.33.19.58.3.79.51c.47.44.7.9.7,1.38s-.06.96-.18,1.45c-.12.49-.27.98-.45,1.47-.18.5-.38.99-.58,1.46-.2.48-.38.89-.55,1.25l-.38.81c-.1.2-.13.26-.08.19,1.4-1.94,2.32-3.19,2.76-3.74l1.32-1.59c.97-1.13,1.73-1.88,2.29-2.25,1.12-.76,2-1.13,2.65-1.13s1.18.08,1.63.25c.44.16.83.4,1.15.7.69.64,1.04,1.46,1.04,2.46s-.23,2.04-.68,3.12c-.45,1.08-.85,1.96-1.18,2.64-.33.67-.65,1.36-.95,2.05-.94,2.1-1.42,3.64-1.42,4.59,0,.43.34.64,1.02.64.53,0,1.01-.11,1.45-.34.43-.23.71-.34.84-.34.26,0,.4.13.4.4,0,1.12-.57,2.06-1.72,2.82-.77.52-1.47.78-2.12.78s-1.18-.07-1.6-.21c-.42-.14-.8-.36-1.12-.66-.74-.67-1.12-1.6-1.12-2.8,0-1.46.46-3.29,1.38-5.48.67-1.5,1.14-2.53,1.42-3.08l.64-1.34c.39-.81.59-1.44.59-1.91s-.35-.7-1.04-.7Z"/>
    <path class="cls-1" d="m42.6,42.33c.05-1.1.23-2.15.55-3.15.31-1,.74-1.97,1.27-2.91.53-.94,1.15-1.83,1.86-2.67s1.48-1.57,2.32-2.2c1.8-1.35,3.62-2.02,5.46-2.02,2.15,0,3.59.89,4.31,2.67.25.6.37,1.32.36,2.15-.01.83-.17,1.59-.47,2.29-.3.7-.72,1.34-1.26,1.91-.54.57-1.17,1.09-1.91,1.54-.74.45-1.54.84-2.41,1.15-1.79.63-3.7.96-5.75.98-.05.18-.08.44-.09.79-.01.35.03.75.11,1.18.09.43.24.82.45,1.16.45.76,1.11,1.13,1.97,1.13,1.46,0,2.89-.43,4.27-1.29.49-.29.89-.59,1.2-.9s.58-.46.8-.46.43.14.6.41c.17.27.25.58.25.92,0,.67-.19,1.25-.57,1.74-1.59,1.59-3.95,2.38-7.09,2.38-1.85,0-3.34-.55-4.46-1.66-1.26-1.26-1.85-2.97-1.78-5.14Zm11.04-10.43c-1.32,0-2.6.91-3.82,2.72-1.03,1.56-1.87,3.41-2.5,5.56,2.1-.21,3.93-1.05,5.48-2.49,1.42-1.36,2.14-2.67,2.14-3.91s-.43-1.87-1.3-1.87Z"/>
    <path class="cls-1" d="m66.94,46.78c-1.72,1.52-3.07,2.28-4.04,2.28s-1.65-.5-2.03-1.51c-.14-.35-.21-.68-.21-.98,0-.82.13-1.61.39-2.38s.51-1.49.77-2.15l1.66-4.29c.64-1.75,1.03-2.97,1.17-3.67.14-.69.12-1.16-.06-1.41-.18-.25-.38-.46-.61-.64-.23-.18-.45-.35-.66-.49s-.31-.33-.31-.55.09-.43.27-.63c.18-.2.43-.38.73-.53.6-.29,1.23-.43,1.88-.43s1.16.07,1.53.2.68.3.92.5c.47.42.7.92.7,1.5s-.1,1.24-.29,1.98-.44,1.51-.74,2.32c-.3.82-.63,1.67-.99,2.55l-1.04,2.61c-.82,2.1-1.32,3.68-1.49,4.73,1.18-.4,2.75-1.85,4.71-4.35,2.13-2.73,4.01-5.85,5.65-9.36.19-.44.42-.72.7-.85.45-.21,1.03-.31,1.72-.28,1.1.04,1.66.38,1.7,1.02.02.39-.08.82-.31,1.29-.23.47-.43.87-.58,1.18l-.74,1.51c-1.47,2.99-2.21,5.41-2.21,7.28,0,1.3.35,2.19,1.06,2.67.2.15.51.23.93.23s.91-.15,1.47-.44c.57-.3,1.11-.7,1.63-1.22.52-.52,1-1.12,1.45-1.81.45-.69.83-1.42,1.16-2.2.69-1.65,1.04-3.11,1.04-4.38,0-2.18-.41-3.79-1.23-4.82-.28-.33-.2-.71.25-1.15.47-.47,1.2-.7,2.19-.7,1.22,0,2.05.69,2.5,2.06.18.52.26,1.29.26,2.33s-.18,2.18-.55,3.45c-.37,1.27-.86,2.48-1.48,3.65-.62,1.17-1.34,2.25-2.15,3.26-.81,1.01-1.67,1.88-2.56,2.63-1.92,1.59-3.69,2.38-5.33,2.38-2.81,0-4.21-1.81-4.21-5.44,0-.83.08-1.64.23-2.44-1.49,2.17-3.09,4.01-4.81,5.53Z"/>
    <path class="cls-1" d="m87.61,53.1c0-.26.2-.79.6-1.58.4-.79.83-1.79,1.3-3.01.47-1.22.92-2.5,1.35-3.82.43-1.32.86-2.74,1.3-4.25l1.47-4.99-1.97.53c-.49,0-.9-.26-1.21-.77-.08-.14-.11-.3-.11-.49s.15-.41.45-.67.67-.5,1.12-.73c.88-.45,1.79-.8,2.72-1.04l.17-.53c.34-1.06.66-2.16.97-3.3.31-1.14.64-2.25.98-3.34.35-1.08.74-2.11,1.18-3.09.44-.98.96-1.83,1.55-2.56,1.31-1.59,2.95-2.38,4.93-2.38,1.46,0,2.62.39,3.48,1.17.86.78,1.29,1.84,1.29,3.18s-.4,2.59-1.19,3.61c-.67.84-1.41,1.27-2.23,1.27-1.02,0-1.71-.47-2.08-1.4-.1-.24-.15-.44-.15-.6,0-.28.19-.53.57-.76.69-.53,1.18-1.23,1.46-2.12.09-.28.13-.55.13-.81,0-1.03-.4-1.55-1.21-1.55-1.11,0-2.13,1.25-3.06,3.76-.28.77-.55,1.61-.83,2.53l-1.78,6.03c1.15-.18,1.98-.26,2.5-.26s.99.06,1.39.18c.4.12.77.29,1.1.5.74.49,1.11,1.1,1.11,1.81s-.35,1.08-1.06,1.08l-2.4-.09c-1.31,0-2.52.06-3.63.17l-1.55,5.48c-1.02,3.72-1.85,6.42-2.49,8.11s-1.26,3.12-1.86,4.29c-.57,1.07-1.43,1.61-2.59,1.61s-1.74-.38-1.74-1.15Z"/>
    <path class="cls-1" d="m119.57,43.92c0,1.16.41,1.74,1.23,1.74.57,0,1.04-.09,1.41-.26.37-.18.62-.26.75-.26.26,0,.4.14.4.42,0,1.08-.57,2.02-1.7,2.8-1.2.82-2.42,1.02-3.67.61-.82-.29-1.42-.91-1.81-1.87-.19-.49-.28-.94-.28-1.34,0-.65.06-1.35.19-2.08-1.17,2.39-2.63,4.04-4.37,4.95-.69.35-1.43.53-2.21.53s-1.46-.16-2.03-.48c-.57-.32-1.06-.77-1.47-1.33-.82-1.18-1.19-2.67-1.11-4.46.08-2.24.74-4.44,1.98-6.6,1.15-2.02,2.6-3.66,4.35-4.93,1.75-1.3,3.39-1.95,4.91-1.95s2.75.7,3.69,2.1c.87-1.4,1.64-2.1,2.31-2.1.72,0,1.26.13,1.63.4.69.5.94.94.74,1.32-3.16,6.48-4.79,10.51-4.88,12.1-.03.23-.04.47-.04.72Zm-10.49.08c0,1.51.48,2.27,1.46,2.27.74,0,1.66-.63,2.74-1.89,1.59-1.85,2.99-4.35,4.21-7.48.39-.98.72-1.97.98-2.95-.05-.86-.41-1.49-1.08-1.89-.23-.14-.56-.21-1.01-.21s-.97.16-1.57.49c-.6.33-1.18.77-1.74,1.34s-1.08,1.24-1.57,2.01c-.49.77-.91,1.62-1.28,2.52-.77,1.94-1.15,3.87-1.15,5.78Z"/>
    <path class="cls-1" d="m125.86,42.42c.03-1.1.2-2.19.52-3.28s.75-2.12,1.29-3.09,1.17-1.86,1.91-2.68c.74-.82,1.54-1.52,2.41-2.12,1.81-1.25,3.72-1.87,5.73-1.87s3.47.83,4.21,2.48c.26.59.39,1.26.37,2.01-.02.75-.14,1.44-.37,2.06s-.51,1.18-.85,1.67c-.77,1.11-1.54,1.66-2.32,1.66-.87,0-1.51-.24-1.93-.72-.37-.42-.48-.9-.34-1.46.04-.16.15-.31.34-.44s.43-.34.72-.63c.82-.86,1.25-1.86,1.29-3.01.02-.78-.45-1.17-1.44-1.17-1.06,0-2.17.59-3.33,1.78-1.69,1.73-2.88,3.94-3.57,6.63-.6,2.34-.49,4.06.34,5.14.49.63,1.16.95,2,.95,1.42,0,2.8-.5,4.12-1.51.4-.31.73-.64.98-.96s.48-.49.7-.49.39.1.54.31c.14.21.22.48.22.8,0,.74-.33,1.47-1,2.19-1.71,1.64-3.77,2.46-6.18,2.46-2.05,0-3.64-.59-4.76-1.76-1.11-1.16-1.64-2.81-1.59-4.95Z"/>
    <path class="cls-1" d="m144.14,42.33c.05-1.1.23-2.15.55-3.15.31-1,.74-1.97,1.27-2.91.53-.94,1.15-1.83,1.86-2.67s1.48-1.57,2.32-2.2c1.8-1.35,3.62-2.02,5.46-2.02,2.16,0,3.59.89,4.31,2.67.25.6.37,1.32.36,2.15s-.17,1.59-.47,2.29c-.3.7-.72,1.34-1.26,1.91-.54.57-1.17,1.09-1.91,1.54s-1.54.84-2.41,1.15c-1.79.63-3.7.96-5.75.98-.05.18-.08.44-.09.79-.01.35.03.75.11,1.18.09.43.24.82.45,1.16.45.76,1.11,1.13,1.97,1.13,1.46,0,2.89-.43,4.27-1.29.49-.29.89-.59,1.2-.9.31-.31.58-.46.8-.46s.43.14.6.41.25.58.25.92c0,.67-.19,1.25-.57,1.74-1.59,1.59-3.95,2.38-7.09,2.38-1.85,0-3.34-.55-4.46-1.66-1.26-1.26-1.85-2.97-1.78-5.14Zm11.04-10.43c-1.32,0-2.6.91-3.82,2.72-1.03,1.56-1.87,3.41-2.5,5.56,2.1-.21,3.93-1.05,5.48-2.49,1.42-1.36,2.14-2.67,2.14-3.91s-.43-1.87-1.3-1.87Z"/>
    <path class="cls-1" d="m80.62,70.88c-.28-.28-.51-.6-.67-.96-.16-.36-.25-.77-.25-1.25s.09-.89.27-1.27c.18-.37.41-.67.69-.9.49-.4,1.01-.6,1.56-.6s1.01.04,1.4.11c.38.08.75.2,1.09.36.78.4,1.17.98,1.17,1.74,0,.95-.31,1.77-.93,2.48-.58.66-1.18,1.01-1.81,1.08-.62.06-1.13.02-1.52-.14-.39-.16-.73-.38-1.01-.65Z"/>
    <path class="cls-1" d="m90.52,65c.03-1.1.2-2.19.52-3.28.32-1.09.75-2.12,1.29-3.09s1.17-1.87,1.91-2.68c.74-.82,1.54-1.52,2.41-2.12,1.81-1.25,3.72-1.87,5.73-1.87s3.47.83,4.21,2.48c.26.59.39,1.26.37,2.01-.02.75-.14,1.44-.37,2.06s-.51,1.18-.85,1.67c-.77,1.11-1.54,1.66-2.32,1.66-.87,0-1.51-.24-1.93-.72-.37-.42-.48-.9-.34-1.46.04-.16.15-.31.34-.44.19-.13.43-.34.72-.63.82-.86,1.25-1.86,1.29-3,.02-.78-.45-1.17-1.44-1.17-1.06,0-2.17.59-3.33,1.78-1.69,1.73-2.88,3.94-3.57,6.63-.6,2.34-.49,4.06.34,5.14.49.63,1.16.95,2,.95,1.42,0,2.8-.5,4.12-1.51.4-.32.73-.64.98-.96.25-.33.48-.49.7-.49s.39.1.54.31c.14.21.22.48.22.8,0,.74-.33,1.47-1,2.19-1.71,1.64-3.77,2.46-6.18,2.46-2.05,0-3.64-.59-4.76-1.76-1.11-1.16-1.64-2.81-1.59-4.95Z"/>
    <path class="cls-1" d="m110.36,70.24c-.53-.5-.94-1.14-1.25-1.92-.3-.77-.46-1.69-.47-2.75-.01-1.06.12-2.13.39-3.21s.66-2.13,1.15-3.14c.5-1.01,1.1-1.95,1.8-2.83s1.47-1.65,2.32-2.31c1.84-1.41,3.75-2.12,5.73-2.12,2.6,0,4.35,1.14,5.27,3.42.66,1.65.69,3.65.11,5.99-.53,2.16-1.5,4.13-2.91,5.94-1.4,1.8-3.05,3.08-4.95,3.84-.96.38-1.9.57-2.83.57s-1.75-.12-2.48-.36-1.35-.61-1.88-1.12Zm3.61-9.17c-.38.93-.68,1.89-.9,2.87-.22.98-.32,1.91-.31,2.79.01.88.15,1.56.41,2.06.26.5.68.75,1.26.75s1.15-.2,1.71-.6,1.11-.92,1.64-1.58c.53-.66,1.03-1.41,1.49-2.27.47-.86.88-1.75,1.23-2.68.77-2.03,1.14-3.83,1.12-5.41,0-1.39-.28-2.27-.85-2.65-.23-.15-.55-.23-.95-.23s-.88.19-1.41.56c-.53.37-1.06.87-1.59,1.5s-1.04,1.37-1.53,2.21c-.49.84-.93,1.73-1.3,2.67Z"/>
    <path class="cls-1" d="m142.76,55.53c-.73,0-2.07,1.06-4.01,3.17-1.45,1.65-2.5,2.89-3.16,3.72l-1.7,2.16c-.73,1.39-1.3,2.54-1.72,3.46l-1.02,2.19c-.26.54-.5.92-.69,1.14-.2.22-.46.33-.79.33s-.66-.06-.96-.18c-.31-.12-.58-.27-.8-.46-.48-.4-.72-.84-.72-1.32,0-.19.14-.56.42-1.12l.72-1.53c.23-.45.49-1.03.79-1.74l1.06-2.59c1.49-3.72,2.23-6.12,2.23-7.2,0-.58-.19-1.01-.57-1.29l-.38-.26c-.13-.09-.19-.24-.19-.46s.08-.43.25-.63c.17-.2.39-.38.67-.53.57-.29,1.14-.44,1.71-.44s1.02.06,1.35.19c.33.13.61.3.85.51.48.44.72.9.72,1.38s-.06.96-.19,1.45c-.13.49-.28.98-.47,1.47s-.39.98-.6,1.45c-.5,1.08-.82,1.75-.94,1.99-.12.25-.15.34-.1.27,2.31-2.99,3.69-4.75,4.16-5.29.97-1.12,1.73-1.89,2.27-2.31,1-.74,1.94-1.12,2.83-1.12s1.6.28,2.13.83c.53.55.79,1.29.79,2.19,0,.79-.2,1.73-.6,2.8-.4,1.07-.67,1.82-.81,2.25l2.78-3.67,1.55-1.85c.93-1.04,1.75-1.73,2.46-2.06.71-.33,1.28-.49,1.73-.49s.89.08,1.32.25c.43.16.8.4,1.11.7.64.62.96,1.44.96,2.46s-.23,1.99-.68,3.02c-.45,1.03-.85,1.88-1.19,2.54-.34.66-.67,1.33-.98,1.99-.92,2-1.38,3.49-1.38,4.46,0,.68.28,1.02.83,1.02s1.01-.11,1.45-.34.71-.34.84-.34c.26,0,.4.13.4.4,0,1.12-.57,2.06-1.72,2.82-.77.52-1.47.78-2.11.78s-1.15-.08-1.54-.23c-.39-.15-.74-.39-1.06-.72-.71-.73-1.06-1.64-1.06-2.74s.14-2.1.42-3.02c.28-.92.6-1.81.98-2.67s.76-1.66,1.14-2.38c.38-.72.68-1.3.88-1.73.4-.88.6-1.53.6-1.95,0-.49-.26-.74-.78-.74-.68,0-1.9,1.13-3.67,3.38-1.34,1.75-2.26,3.01-2.78,3.78l-1.3,1.89c-.73,1.39-1.29,2.54-1.68,3.46l-.96,2.19c-.24.54-.45.92-.62,1.14-.18.22-.42.33-.74.33s-.62-.05-.92-.15-.55-.23-.77-.4c-.49-.37-.74-.75-.74-1.16s.14-.97.41-1.68.61-1.51,1.01-2.39l2.65-5.59c.94-2.08,1.42-3.4,1.42-3.96s-.26-.84-.77-.84Zm1.87,5.33s.02,0,.02-.02l.02-.04s-.04.04-.04.06Z"/>
  </g>
</svg>